<svg width="75" height="78" viewBox="0 0 75 78" fill="none" xmlns="http://www.w3.org/2000/svg">
<path d="M37.5 39C47.1167 39 54.9107 31.3619 54.9107 21.9375C54.9107 12.5131 47.1167 4.875 37.5 4.875C27.8833 4.875 20.0893 12.5131 20.0893 21.9375C20.0893 31.3619 27.8833 39 37.5 39ZM21.1775 61.3945C21.1775 63.1674 22.6329 64.5938 24.442 64.5938C26.251 64.5938 27.7065 63.1674 27.7065 61.3945C27.7065 59.6216 26.251 58.1953 24.442 58.1953C22.6329 58.1953 21.1775 59.6216 21.1775 61.3945ZM50.558 43.3456V49.8773C55.5228 50.8638 59.2634 55.1827 59.2634 60.3281V65.8868C59.2634 66.8999 58.5289 67.7796 57.5087 67.9796L53.1288 68.8327C52.5439 68.9527 51.9727 68.5794 51.8502 67.9929L51.4286 65.9001C51.3062 65.3269 51.687 64.7537 52.2855 64.6471L54.9107 64.1272V60.3281C54.9107 51.9568 41.8527 51.6502 41.8527 60.5814V64.1405L44.4779 64.6604C45.0628 64.7804 45.4436 65.3402 45.3348 65.9134L44.9132 68.0063C44.7907 68.5794 44.2195 68.9527 43.6346 68.846L39.3907 68.2862C38.3161 68.1396 37.5136 67.2464 37.5136 66.1667V60.3281C37.5136 55.1827 41.2542 50.8771 46.219 49.8773V43.8521C45.9197 43.9455 45.6205 43.9988 45.3212 44.1054C42.8728 44.9452 40.2476 45.4118 37.5136 45.4118C34.7796 45.4118 32.1544 44.9452 29.706 44.1054C28.6994 43.7588 27.6793 43.5456 26.6319 43.4123V54.2896C29.774 55.2094 32.0728 58.0354 32.0728 61.4079C32.0728 65.5269 28.6586 68.8727 24.4556 68.8727C20.2525 68.8727 16.8384 65.5269 16.8384 61.4079C16.8384 58.0354 19.1371 55.2094 22.2792 54.2896V43.5722C13.6283 44.9985 7.03125 52.3034 7.03125 61.1812V67.1531C7.03125 70.4457 9.76528 73.125 13.125 73.125H61.875C65.2347 73.125 67.9688 70.4457 67.9688 67.1531V61.1812C67.9688 51.5836 60.2427 43.8122 50.558 43.3456Z" fill="white"/>
</svg>
