<svg width="75" height="78" viewBox="0 0 75 78" fill="none" xmlns="http://www.w3.org/2000/svg">
<path d="M60.083 21.7471L48.1323 10.5498C47.583 10.0356 46.8384 9.75 46.0571 9.75H45.3125V24.375H60.9375V23.678C60.9375 22.9582 60.6323 22.2612 60.083 21.7471ZM41.4063 25.2891V9.75H16.9922C15.3687 9.75 14.0625 10.9726 14.0625 12.4922V65.5078C14.0625 67.0274 15.3687 68.25 16.9922 68.25H58.0078C59.6313 68.25 60.9375 67.0274 60.9375 65.5078V28.0312H44.3359C42.7246 28.0312 41.4063 26.7973 41.4063 25.2891ZM49.2188 43.5703V49.0547C49.2188 49.5574 48.7793 49.9688 48.2422 49.9688H41.4063V56.3672C41.4063 56.8699 40.9668 57.2812 40.4297 57.2812H34.5703C34.0332 57.2812 33.5938 56.8699 33.5938 56.3672V49.9688H26.7578C26.2207 49.9688 25.7812 49.5574 25.7812 49.0547V43.5703C25.7812 43.0676 26.2207 42.6562 26.7578 42.6562H33.5938V36.2578C33.5938 35.7551 34.0332 35.3438 34.5703 35.3438H40.4297C40.9668 35.3438 41.4063 35.7551 41.4063 36.2578V42.6562H48.2422C48.7793 42.6562 49.2188 43.0676 49.2188 43.5703Z" fill="white"/>
</svg>
