<svg width="75" height="78" viewBox="0 0 75 78" fill="none" xmlns="http://www.w3.org/2000/svg">
<path d="M25.1953 47.5312H26.7334V49.6641C26.7334 50.8424 27.6511 51.7969 28.7842 51.7969H33.9111C35.0442 51.7969 35.9619 50.8424 35.9619 49.6641V47.5312H37.5C39.7648 47.5312 41.6016 45.621 41.6016 43.2656V13.4062C41.6016 11.0508 39.7648 9.14062 37.5 9.14062V7.00781C37.5 5.82943 36.5823 4.875 35.4492 4.875H27.2461C26.113 4.875 25.1953 5.82943 25.1953 7.00781V9.14062C22.9305 9.14062 21.0938 11.0508 21.0938 13.4062V43.2656C21.0938 45.621 22.9305 47.5312 25.1953 47.5312ZM64.1602 64.5938H63.9948C67.908 60.0602 70.3125 54.0896 70.3125 47.5312C70.3125 33.4174 59.2742 21.9375 45.7031 21.9375V30.4688C54.7496 30.4688 62.1094 38.1229 62.1094 47.5312C62.1094 56.9396 54.7496 64.5938 45.7031 64.5938H10.8398C7.44196 64.5938 4.6875 67.4584 4.6875 70.9922C4.6875 72.1706 5.60522 73.125 6.73828 73.125H68.2617C69.3948 73.125 70.3125 72.1706 70.3125 70.9922C70.3125 67.4584 67.558 64.5938 64.1602 64.5938ZM18.0176 60.3281H44.6777C45.2443 60.3281 45.7031 59.8509 45.7031 59.2617V57.1289C45.7031 56.5397 45.2443 56.0625 44.6777 56.0625H18.0176C17.451 56.0625 16.9922 56.5397 16.9922 57.1289V59.2617C16.9922 59.8509 17.451 60.3281 18.0176 60.3281Z" fill="white"/>
</svg>
