<svg viewBox="0 0 41 26" fill="none" xmlns="http://www.w3.org/2000/svg">
<path d="M24.1387 21.8805C25.1583 23.4142 26.6658 24.5868 28.4345 25.2221C30.2032 25.8574 32.1376 25.921 33.947 25.4035C35.7564 24.8859 37.343 23.8151 38.4683 22.352C39.5936 20.8889 40.1969 19.1125 40.1874 17.2898C40.1865 15.7805 39.7659 14.2991 38.9696 13.0004C38.1734 11.7017 37.0307 10.6334 35.6609 9.90699C34.2911 9.18063 32.7445 8.82289 31.1826 8.87115C29.6208 8.91941 28.101 9.3719 26.7821 10.1813C27.4678 8.21463 28.745 6.11647 30.8492 4.01325C31.2518 3.61098 31.4725 3.07071 31.4627 2.51131C31.4528 1.9519 31.2134 1.41917 30.7969 1.03031C30.3804 0.641454 29.8211 0.428323 29.2419 0.437804C28.6627 0.447286 28.1112 0.678605 27.7086 1.08087C19.9303 8.86683 20.9405 17.3303 24.1387 21.8704L24.1387 21.8805ZM3.20111 21.8805C4.22074 23.4142 5.72819 24.5868 7.49691 25.2221C9.26562 25.8574 11.2 25.921 13.0094 25.4035C14.8188 24.8859 16.4054 23.8151 17.5307 22.352C18.656 20.8889 19.2593 19.1125 19.2498 17.2898C19.2488 15.7805 18.8283 14.2991 18.032 13.0004C17.2358 11.7017 16.0931 10.6334 14.7233 9.90699C13.3535 9.18063 11.8069 8.82288 10.245 8.87114C8.68319 8.91941 7.16341 9.3719 5.84449 10.1813C6.53019 8.21463 7.80738 6.11647 9.91161 4.01324C10.3142 3.61098 10.5349 3.07071 10.525 2.5113C10.5152 1.9519 10.2757 1.41917 9.85927 1.03031C9.4428 0.641452 8.88345 0.428321 8.30428 0.437802C7.72512 0.447284 7.17357 0.678603 6.77098 1.08087C-1.00735 8.86683 0.00289228 17.3303 3.20111 21.8704L3.20111 21.8805Z" fill="#0d6efd"/>
</svg>
