<svg width="39" height="38" viewBox="0 0 39 38" fill="none" xmlns="http://www.w3.org/2000/svg">
<g clip-path="url(#clip0_9_25)">
<path d="M9.17825 3.154C9.03804 2.97364 8.86107 2.82518 8.65908 2.71848C8.45709 2.61178 8.23471 2.54928 8.0067 2.53513C7.7787 2.52097 7.5503 2.5555 7.33666 2.6364C7.12303 2.71731 6.92905 2.84274 6.76762 3.00437L4.31187 5.4625C3.16475 6.612 2.742 8.23887 3.24312 9.66625C5.323 15.5743 8.70632 20.9382 13.1421 25.3602C17.5642 29.796 22.9281 33.1793 28.8361 35.2592C30.2635 35.7604 31.8904 35.3376 33.0399 34.1905L35.4956 31.7347C35.6573 31.5733 35.7827 31.3793 35.8636 31.1657C35.9445 30.9521 35.979 30.7237 35.9649 30.4957C35.9507 30.2677 35.8882 30.0453 35.7815 29.8433C35.6748 29.6413 35.5264 29.4643 35.346 29.3241L29.8669 25.0634C29.6742 24.9139 29.4501 24.8102 29.2115 24.76C28.9728 24.7098 28.7259 24.7145 28.4894 24.7736L23.2881 26.0727C22.5939 26.2463 21.8665 26.2371 21.1769 26.046C20.4872 25.855 19.8588 25.4886 19.3527 24.9826L13.5197 19.1472C13.0133 18.6415 12.6465 18.0131 12.4551 17.3235C12.2636 16.6338 12.254 15.9063 12.4272 15.2119L13.7287 10.0106C13.7879 9.77406 13.7926 9.52716 13.7424 9.28854C13.6922 9.04991 13.5884 8.82581 13.439 8.63312L9.17825 3.154ZM4.9745 1.21362C5.39011 0.797879 5.88941 0.475308 6.43925 0.267332C6.98909 0.0593549 7.57689 -0.029269 8.1636 0.00734468C8.75032 0.0439584 9.32254 0.204972 9.84225 0.479693C10.362 0.754415 10.8173 1.13656 11.178 1.60075L15.4387 7.0775C16.2201 8.08212 16.4956 9.39075 16.1869 10.6257L14.8877 15.827C14.8206 16.0964 14.8242 16.3786 14.8983 16.6462C14.9724 16.9137 15.1144 17.1576 15.3105 17.3541L21.1459 23.1895C21.3426 23.386 21.5869 23.5283 21.8549 23.6024C22.123 23.6764 22.4056 23.6799 22.6754 23.6122L27.8742 22.3131C28.4837 22.1607 29.1198 22.1489 29.7345 22.2785C30.3492 22.4081 30.9264 22.6758 31.4225 23.0612L36.8992 27.322C38.8681 28.8539 39.0486 31.7632 37.2864 33.5231L34.8306 35.9789C33.0731 37.7364 30.4464 38.5082 27.9977 37.6461C21.7306 35.441 16.0403 31.8531 11.349 27.1486C6.64481 22.458 3.05694 16.7686 0.851497 10.5022C-0.00825304 8.056 0.763622 5.42687 2.52112 3.66937L4.97687 1.21362H4.9745Z" fill="#06A3DA"/>
</g>
<defs>
<clipPath id="clip0_9_25">
<rect width="38" height="38" fill="white" transform="translate(0.5)"/>
</clipPath>
</defs>
</svg>
